<mxfile host="app.diagrams.net" modified="2023-07-11T05:14:31.867Z" agent="Mozilla/5.0 (Windows NT 10.0; Win64; x64) AppleWebKit/537.36 (KHTML, like Gecko) Chrome/114.0.0.0 Safari/537.36" version="21.6.1" etag="WwJEeOPrADU118VO6Vog" type="github">
  <diagram name="Halaman-1" id="2udiMksx6YllAyx8dOVI">
    <mxGraphModel>
      <root>
        <mxCell id="0" />
        <mxCell id="1" parent="0" />
      </root>
    </mxGraphModel>
  </diagram>
</mxfile>
